<?xml version="1.0" encoding="utf-8"?>
<!-- Generator: Adobe Illustrator 21.0.2, SVG Export Plug-In . SVG Version: 6.00 Build 0)  -->
<svg version="1.1" id="Layer_1" xmlns="http://www.w3.org/2000/svg" xmlns:xlink="http://www.w3.org/1999/xlink" x="0px" y="0px"
	 viewBox="0 0 64 64" style="enable-background:new 0 0 64 64;" xml:space="preserve">
<style type="text/css">
	.st0{fill:#FFFFFF;}
</style>
<g>
	<path class="st0" d="M3.3,1c19.1,22-10.4,43.9,0,62L63,32L3.3,1"/>
	<path d="M3.4,0.9c1.9,2,3.5,4.2,4.7,6.7c1.3,2.5,2,5.2,2.3,8C11,21.2,9.7,26.8,8,31.9c-1.7,5.2-3.8,10.2-5.2,15.4
		c-0.7,2.6-1.1,5.2-1.1,7.8c0.1,2.6,0.7,5.2,2,7.6l-0.6-0.2c5-2.4,10-5,15-7.6l7.4-3.9l7.4-4c4.9-2.7,9.8-5.4,14.8-8
		c4.9-2.7,9.9-5.3,14.8-7.9v1.8c-5-2.5-10-5.1-15-7.7c-5-2.6-9.9-5.2-14.8-7.9C22.9,12,13,6.6,3.3,1.1L3.4,0.9
		c10.1,4.8,20.2,9.7,30.2,14.8c5,2.5,10,5.1,15,7.6c5,2.6,9.9,5.2,14.9,7.8l0,0c0.5,0.3,0.7,0.9,0.4,1.3c-0.1,0.2-0.3,0.3-0.4,0.4
		c-5,2.5-10,5.1-15,7.6c-5,2.5-10,5-15.1,7.5l-7.5,3.7l-7.5,3.8c-5,2.6-9.9,5.2-14.8,7.9c-0.2,0.1-0.5,0-0.6-0.2l0,0
		c-1.5-2.4-2.3-5.2-2.5-8c-0.2-2.8,0.1-5.6,0.8-8.3c1.3-5.4,3.5-10.4,5.2-15.5c1.7-5.1,3.2-10.3,2.8-15.7C9.1,13.1,8.4,10.5,7.4,8
		c-1-2.5-2.5-4.8-4.2-6.9L3.4,0.9z"/>
</g>
</svg>
