<?xml version="1.0" encoding="utf-8"?>
<!-- Generator: Adobe Illustrator 21.0.2, SVG Export Plug-In . SVG Version: 6.00 Build 0)  -->
<svg version="1.1" id="Layer_1" xmlns="http://www.w3.org/2000/svg" xmlns:xlink="http://www.w3.org/1999/xlink" x="0px" y="0px"
	 viewBox="0 0 64 64" style="enable-background:new 0 0 64 64;" xml:space="preserve">
<style type="text/css">
	.st0{fill:#FFFFFF;}
</style>
<g>
	<rect x="19.5" y="4.5" class="st0" width="8" height="57"/>
	<path d="M19.6,4.6c0.2,5,0.4,9.8,0.5,14.6c0.1,4.8,0.2,9.5,0.2,14.2c0,4.7-0.2,9.3-0.4,14c-0.2,4.7-0.2,9.4-0.1,14.2l-0.3-0.3
		c2.7,0,5.3-0.1,8-0.2L27,61.5c-0.2-4.7-0.3-9.5-0.4-14.2c0-4.7-0.1-9.5-0.2-14.2c0-2.4,0-4.7,0-7.1c0-2.4,0.1-4.7,0.1-7.1
		C26.7,14,26.8,9.3,27,4.5L27.5,5C25,4.9,22.3,4.7,19.6,4.6z M19.4,4.4C22,4.3,24.7,4.1,27.5,4C27.8,4,28,4.2,28,4.5l0,0
		c0.2,4.7,0.3,9.5,0.4,14.2c0.1,2.4,0.1,4.7,0.1,7.1c0,2.4,0,4.7,0,7.1c0,4.7-0.1,9.5-0.2,14.2c-0.1,4.7-0.2,9.5-0.4,14.2l0,0
		c0,0.3-0.3,0.5-0.5,0.5c-2.7-0.1-5.3-0.2-8-0.2l0,0c-0.2,0-0.3-0.2-0.3-0.3l0,0c0.1-4.8,0-9.5-0.1-14.3c-0.1-4.8-0.4-9.7-0.4-14.5
		c0-4.8,0.1-9.6,0.2-14.3C19,13.6,19.2,9,19.4,4.4z"/>
</g>
<g>
	<rect x="34.5" y="4.5" class="st0" width="8" height="57"/>
	<path d="M34.5,4.5c0.1,4.9,0.2,9.6,0.3,14.4c0,4.7,0.1,9.5,0.1,14.2c0,4.7-0.1,9.4-0.2,14.1c-0.1,4.7-0.1,9.5-0.1,14.2l-0.2-0.2
		c2.7,0,5.3-0.1,8-0.1l-0.3,0.3c-0.1-4.7-0.1-9.5-0.2-14.2L42,33c0-4.7,0-9.5,0.1-14.2c0-4.7,0.1-9.5,0.2-14.2l0.3,0.3L34.5,4.5z
		 M34.5,4.5l8-0.2c0.1,0,0.2,0.1,0.3,0.2l0,0l0,0c0.1,4.7,0.2,9.5,0.2,14.2C43,23.5,43,28.3,43,33L43,47.2c0,4.7-0.1,9.5-0.2,14.2
		l0,0c0,0.1-0.1,0.3-0.3,0.3c-2.7,0-5.3-0.1-8-0.1c-0.1,0-0.2-0.1-0.2-0.2l0,0c0-4.8,0-9.5-0.1-14.3c-0.1-4.8-0.2-9.6-0.2-14.4
		c0-4.8,0.1-9.5,0.1-14.3C34.3,13.8,34.3,9.1,34.5,4.5z"/>
</g>
</svg>
